<svg width="800" height="800" viewBox="0 0 800 800" fill="none" xmlns="http://www.w3.org/2000/svg">
<g id="glass 1">
<g id="glassTwo">
<g id="Group">
<path id="Vector" d="M112.297 393.546C99.0039 413.17 86.5761 437.392 80.402 470.719C75.3627 497.921 80.0936 519.555 88.799 536.781C102.87 564.627 129.546 583.954 160.207 589.716C174.798 592.457 192.225 595.686 206.84 598.355C238.519 604.142 271.368 594.907 294.585 572.593C307.963 559.737 319.194 541.728 323.989 515.847C330.163 482.52 327.236 455.453 321.856 432.37L112.297 393.546Z" fill="#F4B2B0"/>
<path id="Vector_2" d="M171.113 661.092C189.332 664.467 206.837 652.434 210.213 634.215C213.588 615.996 201.554 598.49 183.335 595.115C165.116 591.74 147.611 603.773 144.235 621.992C140.86 640.211 152.893 657.717 171.113 661.092Z" fill="#F4B2B0"/>
</g>
<path id="Vector_3" d="M340.666 511.468C340.841 510.326 341.014 509.188 341.169 508.061C341.27 507.325 341.362 506.589 341.456 505.855C341.59 504.816 341.718 503.779 341.834 502.754C341.916 502.037 341.993 501.32 342.066 500.604C342.182 499.487 342.287 498.377 342.384 497.274C342.435 496.687 342.488 496.099 342.536 495.513C342.661 493.938 342.769 492.38 342.859 490.835C342.866 490.732 342.873 490.628 342.88 490.525C345.12 450.766 335.579 420.468 327.622 395.222C321.611 376.152 316.865 361.091 319.262 348.154C320.959 338.992 328.792 326.975 342.539 312.441C348.507 306.13 348.23 296.176 341.92 290.208C335.612 284.239 325.656 284.516 319.688 290.827C301.198 310.377 291.235 326.775 288.336 342.427C284.511 363.071 290.882 383.282 297.626 404.679C298.42 407.198 299.223 409.749 300.022 412.333L139.865 382.663C141.537 380.537 143.2 378.442 144.844 376.375C158.806 358.814 171.994 342.227 175.818 321.582C181.136 292.877 163.41 257.039 150.467 230.872C150.185 230.303 149.897 229.721 149.608 229.135L369.558 269.883C378.098 271.465 386.304 265.823 387.885 257.284C389.467 248.746 383.828 240.538 375.287 238.955L131.697 193.829C124.467 192.489 117.678 194.96 113.538 200.436C105.549 211.004 111.138 222.304 122.273 244.816C132.639 265.771 148.302 297.44 144.891 315.852C142.494 328.789 132.667 341.15 120.225 356.8C103.75 377.522 83.989 402.391 71.8394 440.315C71.8089 440.413 71.7795 440.512 71.748 440.609C71.2781 442.085 70.8205 443.579 70.3736 445.094C70.2066 445.658 70.0454 446.226 69.8847 446.793C69.5803 447.857 69.2809 448.931 68.9884 450.016C68.8006 450.71 68.6157 451.407 68.4349 452.106C68.1757 453.107 67.9246 454.119 67.6769 455.137C67.5024 455.856 67.3223 456.575 67.1548 457.298C66.8969 458.407 66.6494 459.532 66.4036 460.66C66.2677 461.279 66.1268 461.895 65.997 462.517C65.6306 464.272 65.2757 466.05 64.9414 467.854C59.8519 495.326 63.157 520.902 74.7665 543.875C87.6642 569.397 110.202 589.223 137.128 599.474C133.054 605.162 130.125 611.8 128.769 619.121C124.821 640.432 135.299 661.121 153.253 671.139L141.386 735.199L89.3248 725.554C80.7843 723.972 72.5789 729.614 70.9971 738.152C69.4151 746.692 75.055 754.898 83.5955 756.48L218.642 781.498C227.183 783.081 235.388 777.438 236.97 768.9C238.552 760.361 232.912 752.155 224.371 750.572L172.311 740.928L184.178 676.868C204.531 673.947 221.723 658.384 225.671 637.073C227.026 629.761 226.673 622.523 224.912 615.761C254.898 615.88 283.954 604.623 305.483 583.932C323.153 566.954 334.582 545.01 339.454 518.712C339.788 516.907 340.095 515.121 340.38 513.351C340.482 512.72 340.571 512.096 340.666 511.468ZM176.866 645.895C175.975 645.553 175.044 645.274 174.07 645.094C173.095 644.913 172.128 644.838 171.172 644.84C163.113 641.933 158.083 633.541 159.693 624.848C161.484 615.183 170.802 608.778 180.465 610.568C190.128 612.358 196.533 621.676 194.742 631.341C193.134 640.034 185.43 646.067 176.866 645.895ZM283.69 561.251C264.444 579.746 236.773 587.834 209.668 582.882C195.075 580.219 177.679 576.996 163.112 574.257C136.995 569.352 114.46 552.689 102.836 529.687C94.2869 512.769 92.0068 494.417 95.8666 473.582C96.1333 472.142 96.4121 470.722 96.7042 469.32C96.904 468.356 97.1187 467.402 97.332 466.449C97.4273 466.019 97.5163 465.581 97.6151 465.156C102.072 445.794 109.265 428.214 119.806 410.932L308.622 445.912C312.273 465.823 312.689 484.813 309.916 504.487C309.855 504.919 309.781 505.36 309.718 505.795C309.575 506.763 309.434 507.728 309.275 508.7C309.044 510.114 308.797 511.54 308.531 512.98C304.827 532.956 296.703 548.747 283.69 561.251Z" fill="#B3404A"/>
</g>
<g id="glassOne">
<g id="Group_2">
<path id="Vector_4" d="M471.81 431.421C466.43 454.505 463.506 481.572 469.683 514.899C474.724 542.1 486.892 560.602 501.192 573.566C524.306 594.522 556.136 603.008 586.826 597.401C601.43 594.732 618.858 591.503 633.459 588.758C665.108 582.811 692.468 562.419 706.149 533.268C714.032 516.472 718.065 495.635 713.268 469.754C707.092 436.428 694.661 412.206 681.367 392.583L471.81 431.421Z" fill="#F4B2B0"/>
<path id="Vector_5" d="M622.581 660.131C640.8 656.754 652.833 639.248 649.456 621.029C646.079 602.81 628.572 590.778 610.354 594.155C592.135 597.532 580.102 615.038 583.479 633.257C586.856 651.476 604.362 663.508 622.581 660.131Z" fill="#F4B2B0"/>
</g>
<path id="Vector_6" d="M727.27 459.69C727.024 458.562 726.778 457.437 726.519 456.329C726.349 455.606 726.171 454.886 725.997 454.167C725.749 453.149 725.497 452.135 725.238 451.136C725.057 450.437 724.872 449.741 724.685 449.046C724.392 447.962 724.092 446.888 723.788 445.823C723.625 445.257 723.464 444.689 723.299 444.124C722.852 442.61 722.394 441.116 721.924 439.641C721.894 439.543 721.863 439.443 721.833 439.345C709.679 401.423 689.915 376.554 673.442 355.836C660.997 340.186 651.17 327.825 648.772 314.888C647.074 305.726 650.081 291.701 657.708 273.206C661.018 265.175 657.193 255.982 649.165 252.671C641.136 249.359 631.94 253.184 628.63 261.215C618.371 286.092 614.946 304.97 617.846 320.622C621.673 341.266 634.862 357.852 648.825 375.412C650.468 377.48 652.132 379.574 653.805 381.7L493.648 411.383C494.447 408.799 495.25 406.248 496.044 403.729C502.786 382.331 509.156 362.12 505.33 341.476C500.01 312.771 470.62 285.663 449.16 265.871C448.693 265.441 448.216 265.001 447.737 264.558L667.685 223.793C676.225 222.21 681.864 214.002 680.282 205.464C678.699 196.926 670.493 191.283 661.953 192.866L418.364 238.012C411.134 239.352 405.681 244.092 403.778 250.687C400.105 263.416 409.372 271.964 427.835 288.991C445.02 304.841 470.99 328.795 474.403 347.208C476.8 360.144 472.054 375.206 466.046 394.275C458.089 419.523 448.55 449.822 450.795 489.581C450.802 489.683 450.809 489.786 450.815 489.889C450.905 491.435 451.013 492.993 451.139 494.568C451.185 495.154 451.238 495.742 451.291 496.329C451.388 497.432 451.493 498.542 451.609 499.659C451.682 500.374 451.759 501.091 451.841 501.809C451.958 502.836 452.086 503.871 452.219 504.91C452.314 505.644 452.404 506.38 452.506 507.115C452.663 508.243 452.835 509.382 453.01 510.523C453.104 511.149 453.194 511.775 453.295 512.402C453.582 514.172 453.888 515.959 454.222 517.763C459.314 545.235 471.563 567.929 490.633 585.217C511.819 604.423 539.964 614.858 568.775 614.78C567.01 621.55 566.654 628.798 568.011 636.118C571.961 657.429 589.155 672.99 609.507 675.91L621.38 739.969L569.319 749.617C560.779 751.2 555.14 759.408 556.722 767.946C558.305 776.485 566.511 782.126 575.051 780.543L710.097 755.514C718.637 753.931 724.277 745.723 722.694 737.185C721.111 728.646 712.906 723.005 704.365 724.588L652.305 734.237L640.432 670.179C658.387 660.158 668.862 639.469 664.913 618.159C663.557 610.846 660.635 604.216 656.568 598.534C684.606 587.9 707.7 566.98 720.386 539.949C730.8 517.768 733.608 493.185 728.734 466.888C728.399 465.083 728.045 463.306 727.678 461.551C727.547 460.925 727.406 460.311 727.27 459.69ZM622.508 643.882C621.554 643.881 620.585 643.955 619.61 644.135C618.636 644.316 617.706 644.592 616.814 644.937C608.249 645.11 600.545 639.077 598.934 630.385C597.143 620.72 603.547 611.401 613.21 609.61C622.873 607.819 632.192 614.224 633.983 623.889C635.596 632.581 630.565 640.974 622.508 643.882ZM691.913 526.582C680.572 550.746 657.636 568.211 630.555 573.299C615.976 576.041 598.581 579.266 584 581.928C557.858 586.706 530.85 579.223 511.756 561.913C497.712 549.181 489.008 532.865 485.147 512.031C484.88 510.591 484.631 509.164 484.401 507.751C484.243 506.779 484.101 505.812 483.959 504.846C483.894 504.41 483.82 503.97 483.76 503.538C480.983 483.864 481.4 464.874 485.05 444.962L673.865 409.968C684.407 427.248 691.6 444.829 696.06 464.19C696.158 464.615 696.247 465.054 696.343 465.483C696.557 466.438 696.771 467.389 696.971 468.354C697.262 469.757 697.542 471.176 697.809 472.616C701.508 492.593 699.583 510.246 691.913 526.582Z" fill="#B3404A"/>
</g>
<g id="heatOne 1" clip-path="url(#clip0_7_66)">
<g id="Layer 2">
<g id="Layer 1">
<path id="Vector_7" d="M394.857 34.7668C398.003 30.438 400.438 26.9408 403.014 23.5639C406.431 19.0747 411.19 16.3892 416.271 14.2949C418.115 13.5222 420.105 13.1598 422.103 13.2327C430.61 13.7538 438.336 21.2492 439.278 29.8267C440.42 40.1278 437.925 49.8677 433.686 59.0365C428.559 70.57 422.055 81.441 414.317 91.4128C407.403 100.101 400.088 108.568 395.408 118.819C393.634 122.717 391.901 126.635 390.117 130.523C389.745 131.452 389.127 132.263 388.331 132.87C387.534 133.476 386.588 133.856 385.594 133.968C384.599 134.08 383.592 133.92 382.681 133.506C381.769 133.092 380.987 132.438 380.417 131.615C379.584 130.441 378.942 129.142 378.513 127.767C373.734 113.528 366.138 100.652 358.853 87.6852C353.773 78.6667 349.063 69.4478 346.237 59.4975C342.69 46.8015 341.808 33.9852 347.77 21.65C349.341 18.2826 351.435 15.1848 353.973 12.4712C356.661 9.63115 360.222 7.77318 364.089 7.19379C367.956 6.6144 371.905 7.34699 375.307 9.27464C384.325 14.4653 391.44 21.1289 393.755 31.7807C394.066 32.7957 394.434 33.7926 394.857 34.7668ZM391.43 57.9944C390.819 57.2328 389.746 56.4713 389.426 55.4792C388.113 50.7997 386.259 46.09 386.019 41.3303C385.558 32.2316 381.199 25.6482 374.595 20.0868C369.004 15.3671 363.783 16.0786 359.274 22.0909C354.564 28.3737 353.462 35.5685 353.853 43.2041C354.314 52.8639 357.54 61.7621 361.869 70.2094C367.982 82.234 374.465 94.0181 380.908 105.802C382.361 108.448 382.983 111.714 386.61 114.59C387.281 113.368 387.752 112.336 388.374 111.404C392.843 104.77 397.292 98.1165 401.831 91.533C406.37 84.9496 411.371 78.5966 415.589 71.8027C420.6 63.7862 424.989 55.369 427.373 46.1401C428.506 41.7311 429.889 37.1217 429.648 32.6725C429.137 23.2132 424.087 20.4175 415.9 25.6582C411.111 28.859 407.25 33.2658 404.707 38.4343C402.102 43.5147 399.697 48.7254 397.572 54.0162C396.42 56.8921 394.546 57.9643 391.43 57.9944Z" fill="#B3404A"/>
<path id="Vector_8" d="M391.43 57.9944C394.546 57.9944 396.44 56.8921 397.572 53.9862C399.707 48.6953 402.102 43.4847 404.707 38.4043C407.264 33.2553 411.131 28.8698 415.92 25.6882C424.107 20.4174 429.157 23.2132 429.668 32.7026C429.909 37.1517 428.526 41.7211 427.393 46.1702C425.009 55.369 420.6 63.7862 415.589 71.8026C411.351 78.5966 406.39 84.9395 401.831 91.533C397.272 98.1265 392.813 104.77 388.374 111.404C387.752 112.336 387.281 113.408 386.61 114.59C382.982 111.714 382.361 108.448 380.908 105.802C374.415 94.0181 367.932 82.214 361.869 70.2094C357.57 61.7621 354.344 52.8639 353.853 43.2041C353.462 35.5685 354.564 28.3737 359.314 22.0307C363.823 16.0184 369.044 15.327 374.635 20.0266C381.239 25.588 385.598 32.1715 386.059 41.2701C386.299 46.0299 388.153 50.7395 389.466 55.4191C389.746 56.4713 390.819 57.2328 391.43 57.9944Z" fill="white"/>
</g>
</g>
</g>
<g id="heartTwo 1" clip-path="url(#clip1_7_66)">
<g id="Layer 2_2">
<g id="Layer 1_2">
<path id="Vector_9" d="M274.588 88.8422C280.419 87.83 285.229 86.7399 290.099 86.2036C298.404 85.2866 305.671 87.5445 311.727 93.7041C322.654 104.951 325.482 117.927 321.027 132.738C318.57 140.896 312.428 145.948 305.55 150.04C298.335 154.366 290.731 158.017 283.377 162.152C273.256 167.792 264.726 175.129 258.799 185.302C257.632 187.301 255.434 188.702 254.059 190.035C250.598 189.792 248.608 188.797 248.003 185.856C247.631 184.178 246.965 182.56 246.532 180.89C244.62 173.632 241.142 167.118 237.224 160.776C231.358 151.312 225.008 142.151 219.921 132.228C215.678 124.021 213.317 114.972 213.009 105.738C212.689 95.2786 216.115 85.8402 224.048 78.3137C233.149 69.6626 253.029 65.5966 266.438 77.0247C269.181 79.3605 270.989 82.8123 273.117 85.8143C273.702 86.7748 274.194 87.7886 274.588 88.8422ZM254.076 172.43C254.745 172.088 255.365 171.657 255.919 171.149C263.757 161.564 273.723 154.868 284.727 149.417C291.362 146.13 297.851 142.497 304.14 138.552C313.933 132.496 315.862 123.905 313.527 113.403C312.697 110.293 311.402 107.327 309.686 104.605C306.485 99.1024 301.562 96.1437 295.16 95.5901C288.594 95.0277 282.382 95.8583 276.508 99.1457C273.23 100.971 270.176 99.6907 268.61 96.3168C268.196 95.4169 267.882 94.474 267.676 93.5051C266.369 87.5272 262.147 84.3695 256.879 82.1981C252.265 80.3015 247.214 79.7293 242.293 80.5457C239.853 80.8938 237.522 81.7803 235.467 83.1411C227.811 88.5913 223.209 95.9967 222.759 105.539C222.305 114.013 224.328 122.436 228.581 129.779C231.54 134.97 234.637 139.996 237.829 145.005C243.158 153.354 248.756 161.52 252.623 170.708C253.025 171.346 253.514 171.926 254.076 172.43Z" fill="#B3404A"/>
<path id="Vector_10" d="M254.076 172.43C253.523 171.921 253.042 171.339 252.649 170.699C248.781 161.512 243.184 153.345 237.855 144.997C234.637 139.996 231.566 134.927 228.581 129.779C224.322 122.444 222.29 114.027 222.733 105.556C223.183 96.0399 227.785 88.6086 235.441 83.1584C237.496 81.7976 239.828 80.9111 242.267 80.563C247.195 79.7362 252.256 80.3025 256.879 82.1981C262.147 84.3695 266.395 87.5272 267.676 93.5051C267.882 94.474 268.196 95.4169 268.61 96.3168C270.176 99.6907 273.23 100.971 276.508 99.1457C282.382 95.8582 288.62 95.0277 295.16 95.5901C301.562 96.1437 306.485 99.1024 309.686 104.605C311.402 107.327 312.697 110.293 313.527 113.403C315.862 123.905 313.933 132.435 304.14 138.552C297.851 142.471 291.362 146.13 284.727 149.417C273.723 154.868 263.757 161.529 255.919 171.149C255.365 171.657 254.745 172.088 254.076 172.43Z" fill="white"/>
</g>
</g>
</g>
<g id="heartThree 1" clip-path="url(#clip2_7_66)">
<g id="Layer 2_3">
<g id="Layer 1_3">
<path id="Vector_11" d="M495.351 92.9451C498.807 88.8053 501.742 84.7918 506.357 82.1177C517.193 75.6588 535.716 76.115 547.533 87.03C551.515 90.7395 554.403 95.4692 555.885 100.705C557.759 107.189 558.816 113.781 557.904 120.779C556.809 130.355 553.713 139.594 548.819 147.898C546.334 152.016 544.196 156.343 541.711 160.461C537.356 167.646 535.347 175.528 534.146 183.69C533.981 185.634 533.463 187.531 532.616 189.288C530.239 193.422 527.987 194.014 524.456 191.027C512.165 180.639 497.833 174.039 483.262 167.796C463.508 159.245 452.49 143.426 447.532 123.136C445.401 114.438 447.745 106.177 453.016 99.0297C454.943 96.5954 457.448 94.6826 460.305 93.4658C471.014 88.7731 481.945 86.7008 493.031 92.5506C493.787 92.7717 494.565 92.9041 495.351 92.9451ZM495.43 105.59C494.99 105.51 494.559 105.385 494.145 105.215C493.682 104.907 493.26 104.534 492.826 104.185C484.15 97.4016 474.882 98.6984 465.488 102.249C464.002 102.748 462.641 103.56 461.496 104.631C460.351 105.701 459.45 107.005 458.853 108.455C457.189 112.734 456.266 117.251 457.49 121.752C460.821 133.909 467.506 143.933 478.142 150.801C483.567 154.31 489.617 156.889 495.531 159.596C504.277 163.602 512.975 167.624 520.467 173.834C521.669 174.647 522.94 175.353 524.266 175.944C524.806 175.073 525.504 174.433 525.62 173.699C527.573 163.548 532.252 154.533 537.282 145.644C539.513 141.702 541.881 137.831 543.838 133.748C547.981 125.136 549.617 115.939 547.333 106.542C545.6 99.3991 541.337 93.7587 534.396 90.7704C529.674 88.7544 524.474 88.1282 519.408 88.9655C512.362 90.0959 505.536 92.0074 502.881 100.14C501.894 103.234 499.186 105.085 495.43 105.59Z" fill="#B3404A"/>
<path id="Vector_12" d="M495.43 105.59C499.186 105.085 501.894 103.234 502.893 100.178C505.549 92.0451 512.362 90.0959 519.417 88.9624C524.481 88.128 529.677 88.7552 534.396 90.7704C541.328 93.7305 545.6 99.3991 547.333 106.542C549.617 115.939 547.953 125.051 543.838 133.748C541.881 137.831 539.513 141.702 537.282 145.644C532.264 154.54 527.573 163.548 525.554 173.72C525.41 174.463 524.712 175.104 524.2 175.965C522.874 175.375 521.603 174.669 520.401 173.855C512.909 167.646 504.211 163.624 495.465 159.617C489.56 156.908 483.51 154.328 478.076 150.823C467.506 143.933 460.82 133.909 457.509 121.746C456.285 117.245 457.207 112.728 458.872 108.449C459.468 107.002 460.366 105.701 461.508 104.631C462.649 103.562 464.006 102.75 465.488 102.249C474.863 98.7045 484.132 97.4077 492.807 104.191C493.241 104.54 493.675 104.951 494.126 105.221C494.546 105.39 494.984 105.514 495.43 105.59Z" fill="white"/>
</g>
</g>
</g>
</g>
<defs>
<clipPath id="clip0_7_66">
<rect width="127" height="127" fill="white" transform="translate(328 7)"/>
</clipPath>
<clipPath id="clip1_7_66">
<rect width="120" height="120" fill="white" transform="translate(208 70)"/>
</clipPath>
<clipPath id="clip2_7_66">
<rect width="116" height="116" fill="white" transform="translate(436.991 100.615) rotate(-17.885)"/>
</clipPath>
</defs>
</svg>
