<?xml version="1.0" encoding="iso-8859-1"?>
<!-- Uploaded to: SVG Repo, www.svgrepo.com, Generator: SVG Repo Mixer Tools -->
<!DOCTYPE svg PUBLIC "-//W3C//DTD SVG 1.1//EN" "http://www.w3.org/Graphics/SVG/1.1/DTD/svg11.dtd">
<svg fill="#000000" height="800px" width="800px" version="1.1" id="Capa_1" xmlns="http://www.w3.org/2000/svg" xmlns:xlink="http://www.w3.org/1999/xlink" 
	 viewBox="0 0 456.48 456.48" xml:space="preserve">
<path d="M439.996,122.828c-2.241-6.985-7.45-12.505-14.292-15.146c-6.836-2.64-14.397-2.052-20.744,1.611l-135.143,78.019
	c-3.917-2.91-8.765-4.635-14.009-4.635h-55.139c-5.243,0-10.091,1.724-14.008,4.634L51.52,109.294
	c-6.346-3.664-13.907-4.252-20.744-1.612c-6.842,2.641-12.051,8.162-14.292,15.146C5.546,156.928,0,192.394,0,228.24
	s5.546,71.312,16.484,105.413c2.24,6.984,7.449,12.504,14.292,15.146c2.823,1.09,5.77,1.63,8.704,1.63
	c4.171,0,8.315-1.091,12.04-3.241l135.147-78.021c3.917,2.907,8.762,4.63,14.003,4.63h55.139c5.242,0,10.088-1.723,14.004-4.631
	l135.148,78.022c3.726,2.151,7.869,3.242,12.04,3.242c2.934,0,5.881-0.54,8.704-1.63c6.842-2.641,12.051-8.162,14.292-15.146
	c10.938-34.101,16.484-69.567,16.484-105.413S450.935,156.929,439.996,122.828z M41.52,329.866c-1.483,0.857-2.856,0.54-3.542,0.275
	c-0.689-0.266-1.924-0.958-2.45-2.597C25.225,295.421,20,262.011,20,228.24s5.225-67.181,15.528-99.304
	c0.526-1.64,1.761-2.331,2.45-2.597c0.687-0.264,2.059-0.582,3.542,0.275l135.642,78.307c-0.024,0.431-0.038,0.864-0.038,1.3v8.823
	l-90.683-25.448c-5.319-1.493-10.837,1.609-12.33,6.926c-1.492,5.318,1.608,10.838,6.926,12.33l69.077,19.385l-69.077,19.385
	c-5.317,1.492-8.418,7.012-6.926,12.33c1.239,4.414,5.252,7.301,9.623,7.3c0.894,0,1.804-0.121,2.708-0.375l90.683-25.448v8.823
	c0,0.438,0.014,0.874,0.038,1.306L41.52,329.866z M259.352,250.253c0,1.954-1.59,3.544-3.544,3.544h-55.139
	c-1.954,0-3.544-1.59-3.544-3.544v-44.031c0-1.954,1.59-3.544,3.544-3.544h55.139c1.954,0,3.544,1.59,3.544,3.544V250.253z
	 M420.951,327.544c-0.525,1.64-1.761,2.331-2.449,2.597c-0.687,0.264-2.06,0.582-3.542-0.275l-135.646-78.31
	c0.024-0.432,0.038-0.866,0.038-1.304v-8.823l90.684,25.448c0.903,0.254,1.813,0.375,2.707,0.375c4.37,0,8.385-2.887,9.623-7.3
	c1.492-5.318-1.608-10.838-6.926-12.33l-69.077-19.385l69.077-19.385c5.317-1.492,8.418-7.012,6.926-12.33
	c-1.491-5.316-7.011-8.419-12.33-6.926l-90.684,25.448v-8.823c0-0.436-0.014-0.868-0.037-1.298l135.646-78.309
	c1.482-0.856,2.855-0.54,3.542-0.275c0.688,0.266,1.924,0.958,2.449,2.597c10.305,32.124,15.529,65.534,15.529,99.304
	S431.256,295.42,420.951,327.544z"/>
</svg>