<?xml version="1.0" encoding="iso-8859-1"?>
<!-- Uploaded to: SVG Repo, www.svgrepo.com, Generator: SVG Repo Mixer Tools -->
<svg height="800px" width="800px" version="1.1" id="Layer_1" xmlns="http://www.w3.org/2000/svg" xmlns:xlink="http://www.w3.org/1999/xlink" 
	 viewBox="0 0 512 512" xml:space="preserve">
<g>
	<path style="fill:#F9DE8F;" d="M143.314,330.115l9.747,19.749c0.213,0.432,0.625,0.731,1.101,0.8l21.794,3.167
		c1.2,0.175,1.679,1.649,0.811,2.496l-15.77,15.372c-0.345,0.336-0.502,0.82-0.421,1.294l3.723,21.706
		c0.205,1.195-1.05,2.107-2.123,1.542l-19.493-10.248c-0.426-0.224-0.935-0.224-1.361,0l-19.493,10.248
		c-1.074,0.564-2.328-0.347-2.123-1.542l3.723-21.706c0.082-0.475-0.075-0.959-0.421-1.294l-15.77-15.372
		c-0.869-0.846-0.389-2.322,0.811-2.496l21.794-3.167c0.477-0.069,0.889-0.369,1.101-0.8l9.747-19.749
		C141.227,329.027,142.778,329.027,143.314,330.115z"/>
	<path style="fill:#F9DE8F;" d="M408.225,419.711l9.747,19.749c0.213,0.432,0.625,0.731,1.101,0.8l21.794,3.167
		c1.2,0.175,1.679,1.649,0.811,2.496l-15.77,15.372c-0.345,0.336-0.502,0.82-0.421,1.294l3.723,21.706
		c0.205,1.195-1.05,2.107-2.123,1.542l-19.493-10.248c-0.426-0.224-0.935-0.224-1.361,0l-19.493,10.248
		c-1.074,0.564-2.328-0.347-2.123-1.542l3.723-21.706c0.082-0.475-0.075-0.959-0.421-1.294l-15.77-15.372
		c-0.869-0.846-0.389-2.322,0.811-2.496l21.794-3.167c0.477-0.069,0.889-0.369,1.101-0.8l9.747-19.749
		C406.137,418.624,407.688,418.624,408.225,419.711z"/>
</g>
<g>
	<circle style="fill:#67D1D3;" cx="159.747" cy="181.82" r="23.982"/>
	<circle style="fill:#67D1D3;" cx="331.108" cy="97.583" r="23.981"/>
</g>
<circle style="fill:#F09EA0;" cx="477.973" cy="238.283" r="23.982"/>
<path d="M249.573,90.532c10.149-8.856,21.651-18.891,21.709-34.921c0.056-15.948-11.269-25.94-21.259-34.757
	c-1.057-0.932-2.116-1.866-3.162-2.807c-3.862-3.478-9.814-3.169-13.299,0.696c-3.479,3.865-3.168,9.819,0.697,13.299
	c1.092,0.984,2.199,1.96,3.302,2.934c9.28,8.188,14.911,13.657,14.886,20.568c-0.025,7.002-5.781,12.529-15.258,20.797
	c-10.259,8.952-21.89,19.099-22.083,35.454c-0.195,16.257,11.156,26.815,21.169,36.132c8.453,7.862,15.752,14.651,15.747,23.268
	c-0.005,8.228-6.806,14.727-14.683,22.25c-9.77,9.334-20.844,19.913-20.982,36.702c-0.137,16.645,10.571,27.643,20.016,37.345
	c7.414,7.614,13.819,14.191,13.531,21.652c-0.261,6.794-5.616,11.462-14.329,18.516c-9.223,7.466-20.702,16.757-21.306,32.442
	c-0.604,15.685,9.91,26.542,19.184,36.122c7.821,8.076,14.572,15.049,14.354,23.268c-0.195,7.292-5.695,12.533-14.732,20.299
	c-9.147,7.862-20.534,17.647-20.913,33.374c-0.126,5.199,3.988,9.516,9.186,9.642c0.079,0.001,0.154,0.003,0.234,0.003
	c5.095,0,9.286-4.068,9.409-9.19c0.166-6.862,5.536-11.961,14.361-19.546c9.289-7.983,20.85-17.92,21.282-34.079
	c0.433-16.134-10.235-27.152-19.648-36.874c-7.614-7.864-14.191-14.655-13.895-22.295c0.262-6.801,5.619-11.471,14.336-18.527
	c9.221-7.464,20.697-16.754,21.298-32.433c0.598-15.534-9.738-26.149-18.857-35.514c-7.915-8.13-14.751-15.15-14.676-24.051
	c0.073-8.828,7.064-15.506,15.159-23.239c9.606-9.18,20.496-19.582,20.506-35.858c0.01-16.826-11.553-27.58-21.753-37.07
	c-8.188-7.616-15.26-14.194-15.166-22.116C234.028,104.623,239.904,98.967,249.573,90.532z"/>
<path d="M85.156,134.135c-8.188-7.616-15.26-14.196-15.166-22.116c0.089-7.395,5.966-13.052,15.634-21.488
	c10.149-8.856,21.652-18.893,21.709-34.921c0.057-15.95-11.27-25.943-21.263-34.761c-1.056-0.932-2.113-1.863-3.158-2.804
	c-3.862-3.478-9.819-3.169-13.299,0.697c-3.479,3.865-3.168,9.819,0.697,13.299c1.091,0.983,2.196,1.959,3.3,2.932
	c9.281,8.188,14.914,13.658,14.889,20.57c-0.025,7.002-5.781,12.529-15.258,20.797c-10.259,8.952-21.888,19.099-22.083,35.454
	c-0.195,16.257,11.156,26.815,21.169,36.13c8.453,7.862,15.752,14.653,15.747,23.268c-0.005,8.228-6.806,14.727-14.683,22.25
	c-9.77,9.334-20.844,19.913-20.982,36.703c-0.043,5.201,4.138,9.451,9.339,9.493c0.026,0,0.053,0,0.079,0
	c5.164,0,9.373-4.165,9.416-9.339c0.073-8.827,7.064-15.506,15.159-23.239c9.606-9.18,20.496-19.582,20.506-35.858
	C106.919,154.379,95.356,143.624,85.156,134.135z"/>
<path d="M399.718,307.659c-9.223,7.466-20.702,16.757-21.306,32.442c-0.201,5.197,3.85,9.572,9.046,9.772
	c0.124,0.004,0.246,0.006,0.369,0.006c5.034,0,9.208-3.981,9.403-9.054c0.262-6.801,5.619-11.471,14.336-18.527
	c9.221-7.464,20.697-16.754,21.298-32.433c0.598-15.534-9.738-26.149-18.858-35.514c-7.915-8.13-14.75-15.15-14.676-24.051
	c0.073-8.827,7.064-15.506,15.159-23.239c9.606-9.18,20.496-19.582,20.506-35.858c0.01-16.826-11.553-27.58-21.753-37.07
	c-8.188-7.616-15.26-14.194-15.166-22.116c0.088-7.395,5.965-13.052,15.634-21.488c10.149-8.856,21.651-18.891,21.709-34.921
	c0.057-15.948-11.269-25.94-21.259-34.757c-1.057-0.932-2.116-1.866-3.16-2.807c-3.865-3.478-9.819-3.168-13.3,0.696
	c-3.479,3.865-3.168,9.819,0.696,13.299c1.094,0.984,2.2,1.96,3.303,2.934c9.28,8.188,14.911,13.657,14.886,20.568
	c-0.025,7.002-5.781,12.529-15.258,20.797c-10.259,8.952-21.89,19.099-22.083,35.454c-0.195,16.257,11.156,26.815,21.169,36.132
	c8.453,7.862,15.752,14.651,15.747,23.268c-0.005,8.228-6.806,14.727-14.683,22.25c-9.77,9.334-20.844,19.913-20.982,36.702
	c-0.137,16.645,10.571,27.643,20.016,37.345c7.414,7.614,13.819,14.191,13.531,21.652
	C413.786,295.936,408.431,300.605,399.718,307.659z"/>
<path d="M177.31,345.449l-17.655-2.565l-7.896-16l-0.001-0.001c-1.847-3.74-5.584-6.063-9.756-6.063c-0.001,0-0.004,0-0.005,0
	c-4.172,0.001-7.91,2.328-9.752,6.064l-7.896,15.999l-17.657,2.565c-4.127,0.601-7.493,3.438-8.782,7.404s-0.235,8.24,2.752,11.153
	l12.777,12.453l-3.016,17.587c-1.489,8.702,7.936,15.597,15.786,11.467l15.791-8.303l15.789,8.301
	c3.691,1.94,8.083,1.627,11.458-0.825c3.376-2.451,5.036-6.529,4.33-10.642l-3.015-17.586l12.778-12.455
	c2.986-2.912,4.04-7.184,2.751-11.151S181.44,346.049,177.31,345.449z M154.422,365.893c-2.569,2.505-3.737,6.11-3.128,9.628
	l0.999,5.822l-5.237-2.753c-1.582-0.83-3.317-1.244-5.052-1.244c-1.738,0-3.478,0.417-5.065,1.249l-5.228,2.748l0.996-5.807
	c0.611-3.533-0.555-7.139-3.125-9.644l-4.23-4.123l5.845-0.85c3.544-0.515,6.608-2.74,8.193-5.951l2.614-5.297l2.605,5.278
	c1.581,3.223,4.647,5.455,8.2,5.97l5.845,0.85L154.422,365.893z"/>
<path d="M442.221,435.047l-17.656-2.565l-7.896-16l-0.001-0.001c-1.847-3.74-5.585-6.063-9.756-6.063
	c-4.171,0-7.909,2.323-9.757,6.064l-7.896,16l-17.653,2.565c-4.13,0.599-7.496,3.435-8.785,7.403
	c-1.289,3.969-0.235,8.243,2.752,11.155l12.777,12.454l-3.017,17.587c-0.704,4.109,0.954,8.186,4.328,10.638
	c3.374,2.453,7.762,2.771,11.46,0.83l15.791-8.302l15.795,8.304c7.847,4.118,17.283-2.765,15.781-11.471l-3.015-17.584
	l12.775-12.453c2.988-2.912,4.044-7.187,2.753-11.155C449.715,438.482,446.348,435.644,442.221,435.047z M419.333,455.491
	c-2.56,2.497-3.73,6.093-3.126,9.628l0.998,5.822l-5.217-2.743c-3.175-1.675-6.968-1.676-10.136-0.006l-5.228,2.748l1.001-5.831
	c0.601-3.527-0.569-7.123-3.13-9.621l-4.23-4.123l5.848-0.85c3.539-0.516,6.601-2.738,8.188-5.951l2.614-5.297l2.617,5.302
	c1.586,3.207,4.646,5.43,8.189,5.945l5.845,0.85L419.333,455.491z"/>
<path d="M159.748,149.358c-18.414,0-33.396,14.982-33.396,33.396s14.982,33.396,33.396,33.396s33.396-14.982,33.396-33.396
	S178.162,149.358,159.748,149.358z M159.748,197.315c-8.029,0-14.562-6.533-14.562-14.562c0-8.029,6.533-14.562,14.562-14.562
	s14.562,6.533,14.562,14.562C174.31,190.782,167.778,197.315,159.748,197.315z"/>
<path d="M20.102,63.406c0-5.542-4.509-10.051-10.051-10.051S0,57.864,0,63.406s4.509,10.051,10.051,10.051
	S20.102,68.948,20.102,63.406z"/>
<path d="M331.109,65.129c-18.414,0-33.396,14.982-33.396,33.396s14.982,33.396,33.396,33.396c18.414,0,33.396-14.982,33.396-33.396
	S349.523,65.129,331.109,65.129z M331.109,113.086c-8.029,0-14.562-6.533-14.562-14.562s6.533-14.562,14.562-14.562
	c8.029,0,14.562,6.533,14.562,14.562S339.137,113.086,331.109,113.086z"/>
<path d="M477.971,205.821c-18.414,0-33.396,14.982-33.396,33.396c0,18.414,14.982,33.396,33.396,33.396
	c18.414,0,33.396-14.982,33.396-33.396C511.367,220.803,496.386,205.821,477.971,205.821z M477.971,253.779
	c-8.029,0-14.562-6.533-14.562-14.562c0-8.029,6.533-14.562,14.562-14.562c8.029,0,14.562,6.533,14.562,14.562
	C492.534,247.246,486,253.779,477.971,253.779z"/>
<path d="M116.217,283.099c5.542,0,10.051-4.509,10.051-10.051s-4.509-10.051-10.051-10.051c-5.542,0-10.051,4.509-10.051,10.051
	S110.674,283.099,116.217,283.099z"/>
<path d="M331.109,187.258c-5.542,0-10.051,4.509-10.051,10.051s4.509,10.051,10.051,10.051s10.051-4.509,10.051-10.051
	S336.651,187.258,331.109,187.258z"/>
<path d="M501.949,42.016c5.542,0,10.051-4.509,10.051-10.051s-4.509-10.051-10.051-10.051s-10.051,4.509-10.051,10.051
	S496.407,42.016,501.949,42.016z"/>
<path d="M60.573,450.988c-5.542,0-10.051,4.509-10.051,10.051s4.509,10.051,10.051,10.051s10.051-4.509,10.051-10.051
	S66.115,450.988,60.573,450.988z"/>
<path d="M473.396,368.455c-5.542,0-10.051,4.509-10.051,10.051s4.509,10.051,10.051,10.051s10.051-4.509,10.051-10.051
	S478.938,368.455,473.396,368.455z"/>
<path d="M316.553,359.032c-5.542,0-10.051,4.509-10.051,10.051s4.509,10.051,10.051,10.051c5.542,0,10.051-4.509,10.051-10.051
	S322.095,359.032,316.553,359.032z"/>
<path d="M19.474,275.757c-5.542,0-10.051,4.509-10.051,10.051s4.509,10.051,10.051,10.051s10.051-4.509,10.051-10.051
	S25.016,275.757,19.474,275.757z"/>
<path d="M177.211,60.863c5.542,0,10.051-4.509,10.051-10.051s-4.509-10.051-10.051-10.051S167.16,45.27,167.16,50.812
	S171.669,60.863,177.211,60.863z"/>
</svg>