<?xml version="1.0" encoding="iso-8859-1"?>
<!-- Uploaded to: SVG Repo, www.svgrepo.com, Generator: SVG Repo Mixer Tools -->
<svg fill="#000000" height="800px" width="800px" version="1.1" id="Layer_1" xmlns="http://www.w3.org/2000/svg" xmlns:xlink="http://www.w3.org/1999/xlink" 
	 viewBox="0 0 472.615 472.615" xml:space="preserve">
<g>
	<g>
		<path d="M155.885,72.971v280.104c-3.279-2.917-6.908-5.599-10.947-7.959c-20.403-11.941-47.482-14.669-74.091-7.521
			C24.022,350.101-6.442,389.687,2.96,425.791c3.856,14.669,13.634,26.89,28.115,35.448c12.974,7.522,28.489,11.376,45.037,11.376
			c9.497,0,19.275-1.315,29.054-3.948c40.825-10.929,69.089-42.375,69.451-74.137h0.074V178.644l277.861-64.268v170.04
			c-3.277-2.909-6.91-5.583-10.964-7.936c-20.403-11.941-47.389-14.574-74.091-7.522c-46.824,12.504-77.195,52.088-67.793,88.195
			c3.856,14.762,13.539,26.986,28.02,35.447c12.975,7.522,28.583,11.377,45.037,11.377c9.497,0,19.276-1.315,29.054-3.948
			c41.323-11.038,69.858-43.09,69.541-75.283V0L155.885,72.971z"/>
	</g>
</g>
</svg>