<svg width="510" height="784" viewBox="0 0 510 784" fill="none" xmlns="http://www.w3.org/2000/svg">
<path id="dress" d="M487.68 552.583C478.005 525.347 465.834 503.345 453.292 483.944C443.876 469.394 434.272 456.273 425.291 443.4C411.784 424.048 399.709 405.319 390.923 382.728C382.158 360.138 376.53 333.523 376.508 297.956C376.508 292.13 377.378 286.367 378.95 280.55C381.703 270.378 386.731 260.072 392.951 249.755C402.275 234.242 414.217 218.866 424.233 203.25C429.231 195.417 433.764 187.5 437.158 179.231C440.531 170.984 442.787 162.302 442.787 153.195C442.797 141.233 439.558 129.809 433.919 119.687C425.433 104.497 411.691 92.1406 394.937 83.5406C388.8 80.3953 382.241 77.7562 375.348 75.6562V-16H352.261V70.9141C347.264 70.3453 342.161 70.0453 336.978 70.0453C317.781 70.0453 299.723 74.0297 284.078 81.1078C273.026 86.1156 263.184 92.6969 255 100.573C246.816 92.6984 236.973 86.1172 225.922 81.1078C210.275 74.0297 192.217 70.0453 173.022 70.0453C167.837 70.0453 162.725 70.3453 157.728 70.9141V-16H134.651V75.6641C121.489 79.6688 109.526 85.6812 99.3952 93.3594C89.739 100.686 81.7312 109.553 76.0812 119.684C70.4312 129.806 67.203 141.23 67.2124 153.192C67.2124 160.116 68.5265 166.831 70.6374 173.267C74.353 184.527 80.4374 195.061 87.2155 205.481C97.3968 221.066 109.297 236.453 118.362 251.955C122.894 259.695 126.725 267.425 129.362 275.083C132.012 282.752 133.491 290.316 133.491 297.953C133.491 319.022 131.494 336.966 128.058 352.778C122.036 380.428 111.676 401.663 99.0311 421.925C89.5624 437.097 78.7483 451.656 67.728 467.55C51.2124 491.362 34.2812 518.247 21.7093 554.289C9.12491 590.331 0.920226 635.356 0.931163 695.623V699.992L3.80772 703.283C4.92491 704.586 12.6343 712.709 31.2515 720.338C49.889 727.984 79.3499 735.166 124.189 735.156C136.473 735.187 146.066 737.753 155.141 741.778C161.928 744.809 168.408 748.742 175.092 753.12C185.13 759.67 195.623 767.297 208.455 773.444C214.87 776.508 221.876 779.177 229.606 781.039C237.325 782.923 245.759 784 255 784C271.422 784.02 285.309 780.544 297.18 775.431C306.089 771.603 313.883 766.925 321.094 762.269C331.898 755.253 341.439 748.319 351.487 743.372C356.517 740.887 361.67 738.859 367.258 737.433C372.856 736.005 378.9 735.167 385.812 735.156C430.65 735.167 460.112 727.986 478.75 720.338C497.376 712.709 505.075 704.586 506.194 703.283L509.07 699.992V695.623C509.08 634.406 500.614 588.906 487.68 552.583ZM464.655 700.841C448.78 706.491 423.697 711.903 385.812 711.903C370.134 711.872 356.806 715.411 345.381 720.544C336.792 724.383 329.248 729.03 322.17 733.666C311.553 740.641 301.95 747.5 291.53 752.458C286.303 754.952 280.881 756.991 274.92 758.439C268.95 759.887 262.441 760.736 255 760.736C241.775 760.714 231.469 758.095 221.989 754.05C214.891 751.008 208.267 747.097 201.551 742.75C191.461 736.252 181.217 728.677 168.83 722.53C162.641 719.467 155.916 716.777 148.495 714.892C141.086 712.987 133.003 711.902 124.186 711.902C81.8109 711.902 55.464 705.123 40.0858 698.811C32.3858 695.664 27.4202 692.622 24.5124 690.533C24.4093 690.459 24.3249 690.398 24.2327 690.325C24.7187 633.969 32.6671 592.897 44.2249 560.372C53.1874 535.194 64.3218 515.027 76.2421 496.566C85.1827 482.73 94.5796 469.877 103.778 456.705C117.551 436.959 130.912 416.448 140.753 391.158C150.594 365.867 156.761 335.97 156.741 297.952C156.741 289.817 155.53 281.964 153.491 274.45C149.9 261.278 143.825 249.15 136.966 237.745C126.658 220.67 114.52 205.077 105.351 190.713C100.767 183.552 96.9374 176.722 94.3608 170.42C91.7733 164.098 90.4593 158.384 90.4593 153.191C90.4702 145.389 92.5093 138 96.3983 131.003C102.205 120.541 112.356 111.052 125.664 104.233C133.083 100.423 141.475 97.4953 150.498 95.6234H157.722V94.3812C162.678 93.6984 167.78 93.2937 173.016 93.2937C188.983 93.2937 203.822 96.6375 216.334 102.297C228.845 107.947 238.956 115.914 245.672 124.939L255 137.422L264.312 124.942C271.039 115.917 281.15 107.95 293.661 102.3C306.161 96.6391 321.011 93.2969 336.98 93.2969C342.205 93.2969 347.306 93.6687 352.262 94.3531V95.625H359.631C373.994 98.6375 386.701 104.389 396.544 111.883C403.931 117.491 409.716 124.031 413.597 131.005C417.487 138 419.526 145.389 419.537 153.192C419.537 157.155 418.781 161.398 417.261 166.003C414.644 174.075 409.614 183.141 403.311 192.773C393.873 207.272 381.694 222.969 371.573 240.198C366.523 248.83 361.98 257.884 358.659 267.497C355.348 277.091 353.256 287.272 353.256 297.952C353.256 320.491 355.398 340.152 359.217 357.712C365.87 388.456 377.72 412.641 391.245 434.247C401.386 450.473 412.439 465.312 423.159 480.794C439.261 504.036 454.691 528.644 466.331 561.944C477.591 594.231 485.291 634.878 485.766 690.323C482.308 692.853 475.708 696.889 464.655 700.841Z" fill="black"/>
</svg>
