<?xml version="1.0" encoding="iso-8859-1"?>
<!-- Uploaded to: SVG Repo, www.svgrepo.com, Generator: SVG Repo Mixer Tools -->
<svg height="800px" width="800px" version="1.1" id="Layer_1" xmlns="http://www.w3.org/2000/svg" xmlns:xlink="http://www.w3.org/1999/xlink" 
	 viewBox="0 0 511.999 511.999" xml:space="preserve">
<g>
	<path style="fill:#F4B2B0;" d="M160.261,182.124c-8.651,19.785-15.764,43.545-15.764,74.424c0,25.203,7.828,43.797,18.485,57.784
		c17.226,22.609,44.329,35.495,72.751,35.568c13.525,0.034,29.672,0.034,43.207,0c29.338-0.073,57.231-13.797,74.326-37.639
		c9.85-13.736,16.922-31.732,16.922-55.712c0-30.878-7.114-54.639-15.764-74.424L160.261,182.124L160.261,182.124z"/>
	<circle style="fill:#F4B2B0;" cx="257.347" cy="381.463" r="30.565"/>
</g>
<path style="fill:#B3404A;" d="M384.401,249.859c-0.033-1.052-0.067-2.1-0.115-3.136c-0.032-0.676-0.072-1.35-0.109-2.023
	c-0.053-0.953-0.11-1.903-0.176-2.841c-0.046-0.656-0.096-1.311-0.149-1.964c-0.082-1.02-0.172-2.032-0.268-3.036
	c-0.052-0.534-0.102-1.07-0.156-1.603c-0.149-1.431-0.311-2.845-0.487-4.244c-0.011-0.093-0.022-0.188-0.033-0.281
	c-4.591-35.987-18.166-61.545-29.483-82.839c-8.549-16.085-15.3-28.789-15.3-40.776c0-8.489,5.022-20.553,14.925-35.854
	c4.298-6.644,2.398-15.514-4.244-19.813c-6.642-4.3-15.514-2.4-19.813,4.244c-13.319,20.581-19.522,36.923-19.522,51.425
	c0,19.128,9.061,36.175,18.653,54.223c1.129,2.125,2.272,4.277,3.417,6.459H183.15c1.145-2.182,2.287-4.334,3.417-6.459
	c9.592-18.048,18.653-35.095,18.653-54.223c0-26.596-21.826-55.758-37.763-77.05c-0.347-0.463-0.701-0.936-1.057-1.413h203.79
	c7.913,0,14.327-6.416,14.327-14.327S378.103,0,370.19,0H144.496c-6.699,0-12.37,3.34-15.17,8.932
	c-5.403,10.793,1.479,19.988,15.19,38.306c12.763,17.051,32.049,42.82,32.049,59.88c0,11.986-6.752,24.69-15.3,40.774
	c-11.319,21.296-24.894,46.853-29.484,82.841c-0.011,0.093-0.021,0.186-0.033,0.279c-0.176,1.4-0.338,2.814-0.487,4.245
	c-0.056,0.533-0.106,1.069-0.156,1.603c-0.096,1.004-0.186,2.016-0.268,3.036c-0.053,0.653-0.103,1.308-0.149,1.964
	c-0.066,0.94-0.123,1.888-0.176,2.841c-0.037,0.673-0.079,1.347-0.109,2.023c-0.047,1.036-0.082,2.085-0.115,3.136
	c-0.019,0.577-0.043,1.152-0.056,1.731c-0.037,1.633-0.06,3.284-0.06,4.956c0,25.454,7.205,47.816,21.417,66.468
	c15.789,20.722,39.268,34.742,65.089,39.456c-2.705,5.771-4.227,12.204-4.227,18.987c0,19.745,12.819,36.539,30.565,42.534v59.353
	H194.78c-7.913,0-14.327,6.416-14.327,14.327c0,7.912,6.414,14.327,14.327,14.327h125.125c7.913,0,14.327-6.416,14.327-14.327
	c0-7.912-6.414-14.327-14.327-14.327h-48.236v-59.353c17.747-5.995,30.565-22.789,30.565-42.534c0-6.775-1.517-13.2-4.217-18.965
	c26.881-4.87,51.041-19.776,66.893-41.883c13.011-18.141,19.607-39.695,19.607-64.061c0-1.672-0.022-3.323-0.06-4.956
	C384.444,251.011,384.42,250.437,384.401,249.859z M259.979,397.46c-0.855-0.159-1.735-0.254-2.638-0.254
	c-0.903,0-1.782,0.093-2.638,0.254c-7.701-1.267-13.6-7.95-13.6-16.004c0-8.955,7.284-16.239,16.237-16.239
	c8.953,0,16.237,7.284,16.237,16.239C273.579,389.51,267.679,396.193,259.979,397.46z M341.624,303.909
	c-14.171,19.762-37.616,31.599-62.719,31.661c-13.514,0.036-29.632,0.036-43.135,0c-24.21-0.06-47.161-11.247-61.391-29.923
	c-10.466-13.736-15.554-29.797-15.554-49.101c0-1.334,0.014-2.653,0.043-3.957c0.019-0.897,0.053-1.787,0.086-2.676
	c0.014-0.401,0.021-0.808,0.039-1.205c0.779-18.084,4.305-35.026,10.88-52.256h174.944c6.575,17.23,10.099,34.172,10.88,52.256
	c0.017,0.397,0.024,0.805,0.039,1.205c0.033,0.891,0.067,1.779,0.086,2.676c0.027,1.305,0.043,2.623,0.043,3.957
	C355.862,275.055,351.206,290.549,341.624,303.909z"/>
</svg>