<?xml version="1.0" encoding="utf-8"?>
<!-- Uploaded to: SVG Repo, www.svgrepo.com, Generator: SVG Repo Mixer Tools -->
<svg width="800px" height="800px" viewBox="-2.91 0 117.27 117.27" xmlns="http://www.w3.org/2000/svg">

<defs>

<style>.cls-1{fill:#ffffff;}</style>

</defs>

<g id="Layer_2" data-name="Layer 2">

<g id="Layer_1-2" data-name="Layer 1">

<path d="M55.62,10.74c4.61-2.91,8.68-5.86,13.95-7C82,.89,99.68,7.08,107.66,21.25A30.1,30.1,0,0,1,111.45,37c-.21,6.82-1.24,13.49-4.29,19.94A69.57,69.57,0,0,1,90,80.21c-3.67,3.19-7.07,6.69-10.74,9.88-6.42,5.56-10.8,12.52-14.49,20A16.17,16.17,0,0,1,61.56,115c-3.57,3.24-5.92,3.11-8.39-.86C44.57,100.33,32.83,89.53,20.75,79,4.4,64.64-1.29,46,.24,24.94.89,15.91,5.71,8.69,13,3.45A18.79,18.79,0,0,1,21.74.36C33.5-.83,44.66.57,53.51,9.64A10.25,10.25,0,0,0,55.62,10.74ZM51.77,22.93a6.42,6.42,0,0,1-1.12-.76c-.35-.44-.64-.93-.95-1.4C43.46,11.55,34.14,9.92,24,10.42a11.06,11.06,0,0,0-8.31,3.91c-2.93,3.6-5.22,7.66-5.44,12.37C9.68,39.43,13,51.15,21.1,61.06c4.13,5.06,9.15,9.42,14,13.86,7.17,6.57,14.29,13.14,19.57,21.44a25,25,0,0,0,3,3.21c.79-.67,1.66-1.07,2-1.74C64.7,88.67,72,81.45,79.6,74.46c3.37-3.1,6.85-6.09,10-9.41,6.66-7,11.09-15.34,11.81-25.09.55-7.41-1.8-14.16-7.55-19.19A27.27,27.27,0,0,0,80,14.38C72.87,13.28,65.71,13,60.63,20,58.72,22.67,55.54,23.61,51.77,22.93Z"/>

<path class="cls-1" d="M51.77,22.93c3.77.68,6.95-.26,8.86-2.89,5.08-7,12.24-6.76,19.38-5.66a27.27,27.27,0,0,1,13.85,6.39c5.75,5,8.1,11.78,7.55,19.19-.72,9.75-5.15,18-11.81,25.09-3.15,3.32-6.63,6.31-10,9.41-7.59,7-14.9,14.21-20,23.37-.37.67-1.24,1.07-2,1.74a25,25,0,0,1-3-3.21c-5.28-8.3-12.4-14.87-19.57-21.44-4.84-4.44-9.86-8.8-14-13.86C13,51.15,9.68,39.43,10.27,26.7c.22-4.71,2.51-8.77,5.44-12.37A11.06,11.06,0,0,1,24,10.42c10.12-.5,19.44,1.13,25.68,10.35.31.47.6,1,.95,1.4A6.42,6.42,0,0,0,51.77,22.93Z"/>

</g>

</g>

</svg>