<svg width="800" height="800" viewBox="0 0 800 800" fill="none" xmlns="http://www.w3.org/2000/svg">
<g id="heart 1" clip-path="url(#clip0_13_200)">
<path id="heart" d="M224.975 89.175C249.475 89.175 293.8 100.9 365.675 171.7L401.3 206.775L436.4 171.125C486.3 120.425 539.4 88.925 574.975 88.925C622.95 88.925 660.775 105.325 697.65 142.125C732.4 176.775 751.55 222.875 751.55 271.9C751.575 320.95 732.45 367.075 697.325 402.125C694.475 405.025 543.425 567.975 416.875 704.55C410.925 710.225 404.1 711.05 400.475 711.05C396.9 711.05 390.175 710.25 384.225 704.725C353.4 670.425 129.875 421.9 103.9 395.95C69.1249 361.25 49.9749 315.125 49.9749 266.1C49.9749 217.075 69.1249 171 103.925 136.3C137.75 102.5 177.35 89.175 224.975 89.175ZM224.975 39.175C165.175 39.175 112.475 57.05 68.5999 100.9C-22.8751 192.125 -22.8751 340.05 68.5999 431.325C94.7249 457.45 348.175 739.4 348.175 739.4C362.625 753.85 381.575 761.025 400.5 761.025C419.425 761.025 438.3 753.85 452.775 739.4C452.775 739.4 730.025 440.15 732.975 437.175C824.4 345.875 824.4 197.925 732.975 106.7C687.575 61.375 636.85 38.9 575 38.9C515.9 38.9 450 86.025 400.775 136.025C350 86.025 286.15 39.175 225 39.175H224.975Z" />
</g>
<defs>
<clipPath id="clip0_13_200">
<rect width="800" height="800" fill="white"/>
</clipPath>
</defs>
</svg>
