<?xml version="1.0" encoding="utf-8"?>
<!-- Generator: Adobe Illustrator 24.0.1, SVG Export Plug-In . SVG Version: 6.00 Build 0)  -->
<svg version="1.1" id="Capa_1" xmlns="http://www.w3.org/2000/svg" xmlns:xlink="http://www.w3.org/1999/xlink" x="0px" y="0px"
	 viewBox="0 0 14633 1737.3" style="enable-background:new 0 0 14633 1737.3;" xml:space="preserve">
<style type="text/css">
	.st0{fill:#d2ded0;}
	.st1{fill:#d2b869;}
</style>
<g>
	<path class="st0" d="M14633,0c-1175.5,472.6-2525.7,595.5-3452.7,615.1c-1007.9,21.4-1746.6-71.1-1753.9-72l-0.8-0.1
		c-2296.4-137.4-4354.5-142.9-6117.2-16.5C2015.7,619.3,902.8,780.2,0,1005v23.6c1134.6-283.1,3025.2-570.9,6022-570.9
		c1005.2,0,2135,32.4,3401.8,108.2c21,2.6,756.6,93.4,1756.5,72.2c592.9-12.6,1161.5-61.5,1690-145.3
		c652.6-103.5,1245.5-261,1762.7-468.1V0z"/>
	<path class="st1" d="M14633,504.1c-94.1,36.6-886,337.2-2033.2,547.7c-1123.2,206.1-2826.2,365.4-4561.2-46
		c-13.7-2.9-1394-292.5-3067.9-496.2c-983.2-119.6-1874-186.6-2647.4-199.1C1362.6,295,581.1,364,0,515.6v15.8
		c1316.6-344.7,3427.9-194,4968.8-6.5c1673.3,203.6,3053,493,3066.5,495.9c723.6,171.6,1498.5,258.4,2305.7,258.4
		c48.7,0,97.7-0.3,146.6-1c687.9-8.9,1399.6-80,2115.3-211.4c1128-207,1913.1-501.1,2030-546.3V504.1z"/>
	<path class="st1" d="M14633,1523.8c-128.5-49.4-909.4-339.9-2026.8-544.9c-715.8-131.3-1427.6-202.5-2115.7-211.4
		C9630.4,756.4,8805.2,843,8038,1024.9c-13.7,2.9-1393.6,292.4-3067.2,495.9C3429.1,1708.4,1316.7,1859.1,0,1514v15.8
		c527.9,137.8,1221.1,207.4,2064.1,207.4c85.3,0,172.3-0.7,260.7-2.1c773.6-12.5,1664.5-79.5,2647.9-199.1
		c1674.2-203.6,3054.7-493.2,3068.6-496.2c1735.1-411.4,3438.4-252.1,4561.8-46c1134,208.1,1920.9,504.1,2029.9,546.3V1523.8z"/>
</g>
</svg>
