<svg width="668" height="601" viewBox="0 0 668 601" fill="none" xmlns="http://www.w3.org/2000/svg">
<path id="niceHeart" fill-rule="evenodd" clip-rule="evenodd" d="M193.375 0.333344C85.2328 0.333344 0.666504 94.327 0.666504 205.53C0.666504 263.37 9.9225 311 44.4275 361.113C77.3498 408.933 132.096 457.187 217.044 520.85L334 600.333L450.946 520.86C535.9 457.193 590.65 408.933 623.573 361.113C658.076 311 667.333 263.37 667.333 205.53C667.333 94.3273 582.766 0.333344 474.626 0.333344C420.363 0.333344 373.393 22.4404 334 62.441C294.606 22.4404 247.635 0.333344 193.375 0.333344ZM193.375 67C126.517 67 67.3332 126.517 67.3332 205.53C67.3332 223.83 68.3688 239.917 70.9508 254.75C75.2752 279.6 83.9378 300.94 99.3378 323.31C125.511 361.323 172.287 404 257.052 467.523L334 525.313L410.946 467.523C495.713 404 542.49 361.323 568.663 323.31C593.256 287.587 600.666 254.483 600.666 205.53C600.666 126.517 541.483 67 474.626 67C433.436 67 395.67 86.5423 360.776 133.61C354.49 142.091 344.556 147.092 334 147.092C323.443 147.092 313.51 142.091 307.223 133.61C272.33 86.5423 234.563 67 193.375 67Z" fill="#0F1729"/>
</svg>
