<?xml version="1.0" standalone="no"?>
<!DOCTYPE svg PUBLIC "-//W3C//DTD SVG 20010904//EN"
 "http://www.w3.org/TR/2001/REC-SVG-20010904/DTD/svg10.dtd">
<svg version="1.0" xmlns="http://www.w3.org/2000/svg"
 width="512.000000pt" height="512.000000pt" viewBox="0 0 512.000000 512.000000"
 preserveAspectRatio="xMidYMid meet">

<g transform="translate(0.000000,512.000000) scale(0.100000,-0.100000)"
fill="#000000" stroke="none">
<path d="M2518 5046 c-58 -31 -228 -250 -293 -378 -58 -116 -72 -178 -56 -260
7 -35 24 -85 38 -113 20 -40 22 -54 14 -73 -7 -14 -11 -104 -11 -227 0 -113
-2 -205 -5 -205 -3 0 -34 9 -68 21 -90 31 -193 24 -279 -19 -61 -30 -126 -84
-155 -128 l-14 -22 -71 37 c-67 34 -76 36 -167 36 -87 0 -102 -3 -163 -32
-110 -52 -201 -167 -215 -272 l-5 -40 -232 -3 c-223 -3 -233 -4 -280 -28 -27
-14 -68 -46 -91 -72 -73 -81 -75 -94 -75 -490 0 -326 1 -353 21 -410 22 -66
72 -149 114 -188 l25 -23 0 -733 0 -733 -245 -3 -245 -3 -27 -28 -28 -28 0
-147 c0 -140 1 -150 28 -207 52 -111 143 -182 262 -204 83 -15 4447 -15 4530
0 119 22 210 93 262 204 27 57 28 67 28 207 l0 147 -28 28 -27 28 -245 3 -245
3 0 733 0 733 25 23 c42 39 92 122 114 188 20 57 21 84 21 410 0 396 -2 409
-75 490 -23 26 -64 58 -91 72 -47 24 -57 25 -280 28 l-232 3 -6 42 c-17 108
-104 218 -214 270 -61 29 -76 32 -163 32 -91 0 -100 -2 -167 -36 l-71 -37 -14
22 c-29 44 -94 98 -155 128 -86 43 -189 50 -279 19 -34 -12 -65 -21 -68 -21
-3 0 -5 92 -5 205 0 123 -4 213 -11 227 -8 19 -6 33 14 73 38 76 53 164 38
231 -19 81 -90 216 -173 325 -121 159 -173 209 -218 209 -8 0 -27 -6 -42 -14z
m100 -313 c28 -38 70 -102 93 -143 35 -61 43 -84 43 -125 0 -61 -23 -105 -77
-149 -36 -29 -44 -31 -117 -31 -73 0 -81 2 -117 31 -54 44 -77 88 -77 149 0
41 8 64 43 125 49 85 139 210 151 210 4 0 31 -30 58 -67z m92 -1013 l0 -350
-150 0 -150 0 0 350 0 350 150 0 150 0 0 -350z m-623 -101 c35 -13 80 -55 99
-92 8 -15 18 -57 21 -92 l6 -65 -187 0 -186 0 0 60 c0 93 30 145 105 184 35
18 101 21 142 5z m1120 -25 c53 -43 73 -86 73 -161 l0 -63 -186 0 -187 0 6 65
c7 72 22 108 64 147 40 38 70 48 135 45 46 -3 65 -9 95 -33z m-1678 -94 c37
-18 91 -72 91 -90 0 -5 3 -15 6 -24 5 -14 -14 -16 -175 -16 -120 0 -181 4
-181 10 0 36 64 111 110 129 41 16 108 12 149 -9z m2208 9 c48 -18 113 -92
113 -129 0 -6 -61 -10 -180 -10 -99 0 -180 2 -180 5 0 3 6 20 14 38 35 83 146
129 233 96z m769 -372 l24 -28 0 -322 c0 -185 -4 -337 -10 -358 -14 -48 -84
-127 -135 -150 -53 -24 -147 -24 -200 0 -81 37 -145 142 -145 239 0 44 -46 92
-89 92 -71 0 -100 -32 -111 -128 -16 -128 -102 -212 -225 -220 -78 -5 -126 10
-177 56 -49 44 -77 97 -84 159 -11 94 -42 133 -104 133 -59 0 -100 -49 -100
-120 0 -80 -65 -175 -144 -211 -54 -24 -148 -25 -201 0 -76 34 -133 113 -142
195 -8 71 -13 87 -40 112 -35 33 -91 33 -126 0 -27 -25 -32 -41 -40 -112 -9
-82 -66 -161 -142 -195 -53 -25 -147 -24 -201 0 -79 36 -144 131 -144 211 0
71 -41 120 -100 120 -62 0 -93 -39 -104 -133 -10 -87 -71 -169 -148 -201 -150
-63 -338 54 -338 210 0 76 -43 124 -111 124 -43 0 -89 -48 -89 -92 0 -97 -64
-202 -145 -239 -53 -24 -147 -24 -200 0 -51 23 -121 102 -135 150 -6 21 -10
172 -10 356 0 345 1 354 54 375 11 5 867 8 1929 7 l1909 -2 24 -28z m-3166
-1041 c61 -29 72 -31 180 -31 138 0 192 18 288 95 l63 51 46 -41 c26 -22 76
-55 112 -72 57 -28 80 -33 163 -36 135 -6 233 28 329 115 l39 35 39 -35 c96
-87 194 -121 329 -115 83 3 106 8 163 36 36 17 86 50 112 72 l46 41 63 -51
c96 -77 150 -95 288 -95 108 0 119 2 180 31 36 17 87 51 114 76 l50 44 40 -39
c23 -22 75 -56 116 -76 67 -32 85 -36 172 -39 l98 -4 0 -114 0 -114 -1810 0
-1810 0 0 114 0 114 98 4 c87 3 105 7 172 39 41 20 93 54 115 76 l40 39 50
-44 c28 -25 79 -59 115 -76z m3030 -696 l0 -230 -1810 0 -1810 0 0 60 0 60
1469 2 c1466 3 1470 3 1497 24 53 39 56 105 7 150 l-26 24 -1473 0 -1474 0 0
70 0 70 1810 0 1810 0 0 -230z m0 -570 l0 -140 -1810 0 -1810 0 0 140 0 140
1810 0 1810 0 0 -140z m550 -390 c0 -67 -20 -111 -66 -146 l-37 -29 -2257 0
-2257 0 -37 29 c-46 35 -66 79 -66 146 l0 50 2360 0 2360 0 0 -50z"/>
<path d="M3935 1466 c-66 -66 -23 -170 71 -170 49 0 94 48 94 100 0 81 -108
127 -165 70z"/>
</g>
</svg>
