<?xml version="1.0" encoding="iso-8859-1"?>
<!-- Uploaded to: SVG Repo, www.svgrepo.com, Generator: SVG Repo Mixer Tools -->
<svg fill="#000000" height="800px" width="800px" version="1.1" id="Layer_1" xmlns="http://www.w3.org/2000/svg" xmlns:xlink="http://www.w3.org/1999/xlink" 
	 viewBox="0 0 512.002 512.002" xml:space="preserve">
<g>
	<g>
		<g>
			<path d="M512.002,328.497c0-36.263-19.614-54.003-43.227-63.629c-0.749-0.433-1.544-0.742-2.36-0.928
				c-15.462-5.896-32.384-8.533-46.521-10.733c-6.818-1.058-13.252-2.065-18.825-3.268c-4.963-1.068-15.351-5.32-37.022-18.615
				c-0.644-0.551-1.367-0.999-2.15-1.326c-1.767-1.095-3.606-2.248-5.518-3.461c1.327-3.124,2.027-6.512,2.027-10.007
				c0-6.844-2.671-13.278-7.501-18.099c-9.677-9.668-26.539-9.668-36.198,0l-0.067,0.067c-4.101-2.879-8.189-5.779-12.246-8.677
				c7.187-9.997,6.293-24.039-2.684-33.024c-9.677-9.668-26.539-9.668-36.207,0l-2.639,2.638
				c-12.652-9.454-23.239-17.522-30.112-22.81c-8.32-6.383-20.198-5.615-27.605,1.818l-17.527,17.519
				c-8.542,8.542-8.542,22.443,0,30.984l4.77,4.77c1.195,1.186,1.075,2.62,0.964,3.183c-0.145,0.751-0.572,1.749-1.758,2.253
				c-75.964,32.614-111.386-27.349-112.853-29.901c-1.246-2.202-3.422-3.746-5.922-4.198c-3.14-0.563-7.97-0.427-13.201,3.328
				C31.126,185.434,12.626,301.328,8.889,326.48l-8.421,24.55c-0.649,1.869-0.623,3.908,0.077,5.768
				c2.014,5.367,13.559,22.895,77.457,22.895l374.793-0.017c20.516-1.279,59.24-13.6,59.203-51.079
				C511.997,328.564,512.002,328.531,512.002,328.497z M417.265,270.061c11.069,1.724,21.473,3.567,30.861,6.035
				c-8.637,6.273-19.065,9.734-29.991,9.734c-20.767,0-38.76-12.448-46.736-30.449c11.329,6.213,19.961,9.928,26.077,11.24
				C403.526,267.928,410.199,268.96,417.265,270.061z M338.839,210.507c1.613,1.604,2.5,3.738,2.5,6.025
				c0,2.27-0.888,4.412-2.5,6.033l-0.387,0.387c-0.043,0.043-0.086,0.085-0.129,0.129l-17.583,17.583
				c-3.337,3.337-8.747,3.337-12.075,0c-3.328-3.328-3.319-8.738,0-12.066l18.108-18.099
				C329.989,207.264,335.604,207.256,338.839,210.507z M281.602,166.364c2.278,0,4.42,0.887,6.033,2.5
				c3.328,3.328,3.328,8.738,0,12.066l-18.099,18.099c-3.328,3.337-8.747,3.328-12.075,0c-1.613-1.604-2.492-3.746-2.492-6.033
				c0-2.278,0.887-4.42,2.492-6.033l10.41-10.405c0.035-0.037,0.073-0.07,0.108-0.108l7.59-7.586
				C277.182,167.251,279.324,166.364,281.602,166.364z M196.328,212.837c6.11-2.62,10.513-8.124,11.785-14.711
				c1.297-6.741-0.819-13.645-5.658-18.475l-4.762-4.77c-1.894-1.894-1.894-4.958,0-6.852l17.527-17.519
				c1.374-1.382,3.593-1.536,5.129-0.35c6.556,5.033,16.465,12.597,28.313,21.472l-3.267,3.266
				c-4.83,4.83-7.492,11.264-7.492,18.099c0,6.844,2.662,13.269,7.492,18.099c4.992,4.992,11.546,7.484,18.108,7.484
				c6.554,0,13.107-2.492,18.099-7.484l8.839-8.839c3.952,2.83,7.942,5.664,11.944,8.485l-5.795,5.79
				c-9.967,9.984-9.967,26.214,0,36.198h0.009c4.992,4.992,11.546,7.484,18.108,7.484c6.554,0,13.107-2.492,18.099-7.484
				l12.806-12.806c1.654,1.055,3.274,2.079,4.86,3.071c4.149,33.942,33.023,59.902,67.664,59.902
				c18.396,0,35.741-7.335,48.53-20.304c15.271,7.205,25.492,18.326,27.783,37.37H27.155c3.05-19.306,6.614-38.03,10.398-55.178
				c11.421,8.05,25.123,12.511,39.249,12.511c32.532,0,59.832-22.453,66.621-53.426
				C158.826,224.378,176.448,221.373,196.328,212.837z M65.649,181.263c7.833,10.675,27.927,33.45,60.735,40.521
				c-5.666,22.391-25.752,38.447-49.582,38.447c-12.973,0-25.479-5.026-34.945-13.893C50.216,212.476,59.095,187.532,65.649,181.263
				z M452.265,362.627H78.002c-40.201,0-54.963-7.219-59.785-10.752l5.096-14.845h470.461
				C487.071,359.997,453.363,362.543,452.265,362.627z"/>
			<path d="M181.227,299.869c0.01,0.011,0.018,0.023,0.028,0.035c0.021,0.024,0.038,0.05,0.059,0.074
				c0.08,0.092,0.168,0.173,0.252,0.26c0.104,0.11,0.206,0.222,0.315,0.327c0.057,0.054,0.118,0.104,0.176,0.157
				c0.163,0.148,0.33,0.291,0.505,0.427c0.017,0.013,0.034,0.024,0.051,0.037c0.825,0.628,1.773,1.121,2.831,1.421
				c0.777,0.222,1.562,0.324,2.338,0.324c2.399,0,4.666-1.019,6.262-2.746l45.834-40.109l-9.105,31.983
				c-1.297,4.531,1.331,9.259,5.871,10.547c0.777,0.222,1.562,0.324,2.338,0.324c3.721,0,7.134-2.441,8.201-6.195l17.033-59.759
				c1.033-3.644-0.452-7.526-3.644-9.557c-3.183-2.022-7.339-1.69-10.189,0.785L203.93,268.85l9.085-31.873
				c1.289-4.54-1.34-9.259-5.871-10.556c-4.523-1.323-9.25,1.331-10.547,5.871l-16.771,58.88
				C178.679,294.019,179.114,297.38,181.227,299.869z"/>
		</g>
	</g>
</g>
</svg>