<?xml version="1.0" standalone="no"?>
<!DOCTYPE svg PUBLIC "-//W3C//DTD SVG 20010904//EN"
 "http://www.w3.org/TR/2001/REC-SVG-20010904/DTD/svg10.dtd">
<svg version="1.0" xmlns="http://www.w3.org/2000/svg"
 width="512.000000pt" height="512.000000pt" viewBox="0 0 512.000000 512.000000"
 preserveAspectRatio="xMidYMid meet">

<g transform="translate(0.000000,512.000000) scale(0.100000,-0.100000)"
fill="#000000" stroke="none">
<path d="M2493 4849 c-52 -15 -96 -68 -158 -190 -32 -63 -59 -116 -61 -118 -2
-2 -65 -14 -139 -27 -148 -25 -182 -39 -228 -97 -26 -31 -32 -49 -35 -101 -5
-84 8 -109 126 -228 l96 -97 -17 -113 c-9 -62 -17 -137 -17 -165 l0 -52 -537
-3 c-523 -3 -539 -4 -584 -24 -66 -31 -114 -78 -146 -142 l-28 -57 -3 -587 -3
-586 -137 -4 c-112 -3 -145 -7 -183 -24 -66 -31 -114 -78 -146 -142 l-28 -57
-3 -788 -2 -787 -91 0 c-58 0 -100 -5 -118 -14 -66 -35 -66 -137 0 -172 42
-21 4976 -21 5018 0 66 35 66 137 0 172 -18 9 -60 14 -118 14 l-91 0 -2 788
-3 787 -28 57 c-32 64 -80 111 -146 142 -38 17 -71 21 -183 24 l-137 4 -3 586
-3 587 -28 57 c-32 64 -80 111 -146 142 -45 20 -61 21 -583 24 l-538 3 0 52
c0 28 -8 103 -17 165 l-17 113 96 97 c118 119 131 144 126 228 -3 52 -9 70
-35 101 -46 58 -80 72 -228 97 -74 13 -137 25 -139 27 -1 2 -30 56 -62 119
-32 63 -74 129 -91 147 -49 48 -124 64 -200 42z m142 -335 c38 -75 79 -143 90
-150 11 -7 76 -22 145 -34 69 -11 138 -23 153 -26 28 -6 27 -8 -87 -123 -90
-92 -116 -124 -116 -145 0 -15 9 -88 21 -162 11 -75 19 -138 16 -140 -3 -3
-64 24 -136 60 -75 38 -144 66 -161 66 -17 0 -86 -28 -161 -66 -72 -36 -133
-63 -136 -60 -3 2 5 69 17 147 12 78 19 154 15 168 -3 14 -56 76 -117 137
-109 111 -110 112 -82 118 16 3 85 15 154 26 69 12 134 27 145 34 11 8 52 75
90 150 39 74 72 136 75 136 3 0 36 -62 75 -136z m1474 -1068 c43 -23 51 -54
51 -196 0 -72 -2 -130 -5 -130 -2 0 -35 20 -72 44 -88 56 -151 77 -239 78
-102 1 -164 -17 -252 -75 -95 -62 -130 -77 -181 -77 -52 0 -81 12 -171 69 -95
61 -157 82 -246 83 -102 1 -164 -17 -252 -75 -96 -62 -130 -77 -182 -77 -52 0
-86 15 -182 77 -88 58 -150 76 -252 75 -89 -1 -151 -22 -246 -83 -90 -57 -119
-69 -171 -69 -50 0 -91 17 -169 70 -78 53 -114 68 -192 79 -117 16 -235 -16
-337 -93 -19 -14 -39 -26 -43 -26 -14 0 -9 262 6 289 29 53 -52 50 1584 51
1299 0 1527 -2 1551 -14z m-2709 -435 c25 -15 68 -42 95 -59 69 -43 163 -66
245 -59 87 8 140 28 232 88 130 86 193 87 316 6 116 -76 160 -91 272 -91 112
0 156 15 272 91 123 81 186 80 316 -6 110 -72 149 -84 262 -84 113 0 152 12
262 84 42 28 95 55 118 60 59 13 125 -5 200 -55 61 -41 110 -67 153 -80 16 -5
17 -29 17 -326 l0 -320 -1600 0 -1600 0 0 320 c0 297 1 321 18 326 42 13 92
39 153 80 106 70 183 78 269 25z m3205 -963 c46 -21 55 -53 55 -208 0 -77 -3
-140 -6 -140 -3 0 -40 22 -81 50 -100 67 -160 83 -282 78 -104 -5 -135 -16
-231 -79 -151 -99 -207 -101 -353 -7 -110 71 -164 88 -273 88 -101 0 -161 -20
-267 -90 -130 -85 -205 -86 -330 -3 -111 74 -166 92 -274 93 -111 0 -160 -16
-272 -89 -133 -87 -204 -88 -336 -2 -108 71 -168 91 -269 91 -107 0 -166 -18
-262 -82 -117 -77 -197 -92 -277 -51 -15 8 -58 33 -95 57 -91 59 -146 76 -246
76 -107 0 -168 -19 -259 -80 -41 -28 -78 -50 -81 -50 -3 0 -6 64 -6 143 1 152
7 179 51 203 34 19 4054 21 4094 2z m-3638 -476 c114 -75 169 -94 273 -94 105
0 166 20 274 91 93 61 106 65 191 59 57 -3 72 -9 132 -51 128 -87 225 -114
348 -96 67 9 128 36 244 109 59 36 71 40 131 40 60 0 72 -4 131 -40 116 -73
177 -100 244 -109 123 -18 221 9 348 96 60 42 76 48 132 51 85 6 98 2 191 -59
108 -71 169 -91 274 -91 104 0 159 19 272 94 72 46 88 53 144 56 84 6 96 2
194 -63 47 -31 104 -61 128 -67 l42 -12 0 -513 0 -513 -2100 0 -2100 0 0 513
0 513 43 11 c23 7 67 29 97 49 123 83 129 85 211 82 72 -3 79 -5 156 -56z"/>
<path d="M728 1200 c-27 -28 -30 -36 -25 -73 11 -82 102 -116 164 -63 23 20
28 32 28 71 0 39 -5 51 -28 71 -42 36 -99 33 -139 -6z"/>
<path d="M1613 1206 c-23 -20 -28 -32 -28 -71 0 -60 35 -95 95 -95 60 0 95 35
95 95 0 60 -35 95 -95 95 -27 0 -48 -8 -67 -24z"/>
<path d="M2493 1206 c-23 -20 -28 -32 -28 -71 0 -60 35 -95 95 -95 60 0 95 35
95 95 0 60 -35 95 -95 95 -27 0 -48 -8 -67 -24z"/>
<path d="M3373 1206 c-23 -20 -28 -32 -28 -71 0 -39 5 -51 28 -71 62 -53 153
-19 164 63 5 37 2 45 -25 73 -40 39 -97 42 -139 6z"/>
<path d="M4253 1206 c-23 -20 -28 -32 -28 -71 0 -60 35 -95 95 -95 60 0 95 35
95 95 0 60 -35 95 -95 95 -27 0 -48 -8 -67 -24z"/>
</g>
</svg>
