<svg width="800" height="800" viewBox="0 0 800 800" fill="none" xmlns="http://www.w3.org/2000/svg">
<g id="women-shoes 1">
<g id="Group">
<g id="Group_2">
<path id="Vector" d="M796.038 622.417C796.313 621.366 796.605 620.317 796.851 619.262C797.176 617.867 797.451 616.462 797.725 615.059C797.825 614.542 797.944 614.028 798.038 613.51C798.354 611.774 798.617 610.033 798.857 608.289C798.879 608.122 798.909 607.956 798.931 607.787C802.261 582.666 797.621 556.752 785.369 534.054C754.415 477.406 675.669 451.562 622.329 477.897C522.434 527.224 413.78 467.217 345.553 316.54C322.443 265.504 293.201 219.297 259.251 177.798C228.091 139.711 194.705 107.615 161.282 81.3033C149.548 72.0652 138.628 64.1999 128.796 57.682C122.816 53.7176 118.472 51.053 116.033 49.6643C111.967 47.3489 106.995 47.2949 102.88 49.5231C99.4536 51.3799 93.7879 54.846 86.6225 59.9054C74.7944 68.2579 62.9806 78.153 51.9254 89.5971C-4.57268 148.08 -20.1001 221.869 31.1528 306.573C37.8866 317.7 44.0696 330.598 49.7242 345.102C49.7766 345.252 49.8067 345.403 49.8654 345.554C65.0453 384.684 76.2973 435.121 83.9976 494.095C94.4592 574.216 97.3254 658.128 96.0256 728.124C95.9352 732.994 95.8447 736.373 95.786 738.106C95.5257 745.762 101.661 752.108 109.32 752.108H190.576C193.85 752.108 196.851 750.947 199.192 749.014C202.204 746.53 204.124 742.769 204.124 738.56V387.537C235.457 392.722 257.716 416.329 272.741 454.095C272.917 454.54 273.077 454.994 273.252 455.439C273.257 455.452 273.26 455.465 273.265 455.478C279.3 470.992 283.61 487.664 286.451 504.296C287.446 510.125 288.186 515.52 288.703 520.335C288.738 520.655 288.77 520.96 288.8 521.258C289.04 523.58 289.171 525.219 289.222 526.072C290.984 541.571 293.22 556.173 295.888 569.924C320.899 698.848 384.432 752.108 461.586 752.108C520.179 752.108 649.431 734.207 716.393 711.882C755.422 698.873 780.217 669.559 793.524 630.863C794.188 628.93 794.796 626.984 795.356 625.027C795.607 624.161 795.81 623.286 796.038 622.417ZM376.466 686.65C376.201 686.364 375.94 686.069 375.675 685.78C374.961 685.001 374.248 684.219 373.544 683.416C373.23 683.057 372.922 682.689 372.609 682.325C371.962 681.573 371.316 680.819 370.678 680.046C370.346 679.645 370.019 679.232 369.691 678.826C369.08 678.072 368.47 677.315 367.869 676.541C367.531 676.106 367.196 675.661 366.861 675.22C366.278 674.455 365.698 673.689 365.123 672.906C364.782 672.441 364.442 671.967 364.104 671.495C363.544 670.715 362.985 669.931 362.431 669.132C362.092 668.644 361.757 668.148 361.422 667.653C360.878 666.85 360.337 666.042 359.802 665.224C359.469 664.712 359.137 664.197 358.805 663.681C358.277 662.856 357.753 662.022 357.232 661.18C356.905 660.65 356.58 660.116 356.255 659.578C355.737 658.723 355.226 657.857 354.717 656.984C354.401 656.441 354.085 655.897 353.773 655.347C353.266 654.459 352.765 653.557 352.267 652.651C351.96 652.096 351.656 651.539 351.352 650.977C350.856 650.052 350.364 649.114 349.875 648.169C349.583 647.606 349.289 647.043 349.001 646.473C348.509 645.502 348.023 644.516 347.539 643.526C347.263 642.962 346.987 642.402 346.714 641.832C346.225 640.81 345.742 639.771 345.263 638.728C345.004 638.168 344.744 637.612 344.49 637.047C343.998 635.957 343.516 634.848 343.033 633.737C342.802 633.201 342.565 632.672 342.335 632.131C341.824 630.93 341.324 629.707 340.826 628.482C340.634 628.011 340.439 627.549 340.248 627.075C339.689 625.678 339.14 624.258 338.598 622.828C338.475 622.507 338.35 622.194 338.228 621.871C336.888 618.314 335.595 614.661 334.351 610.908C334.292 610.731 334.236 610.549 334.178 610.373C333.625 608.697 333.079 607.004 332.545 605.288C332.373 604.737 332.208 604.171 332.038 603.615C331.626 602.263 331.213 600.908 330.812 599.532C330.602 598.814 330.401 598.083 330.196 597.361C329.844 596.123 329.491 594.887 329.148 593.63C328.926 592.812 328.71 591.979 328.491 591.154C328.179 589.972 327.865 588.791 327.56 587.593C327.33 586.69 327.108 585.774 326.882 584.863C326.6 583.719 326.317 582.574 326.043 581.416C325.812 580.445 325.589 579.462 325.363 578.481C325.105 577.356 324.848 576.228 324.597 575.088C324.37 574.06 324.149 573.019 323.927 571.979C323.691 570.867 323.456 569.751 323.226 568.626C323.003 567.537 322.784 566.439 322.569 565.336C322.353 564.24 322.14 563.138 321.931 562.029C321.713 560.877 321.499 559.718 321.289 558.552C321.094 557.472 320.902 556.385 320.712 555.295C320.501 554.078 320.291 552.854 320.087 551.623C319.912 550.567 319.741 549.506 319.569 548.441C319.363 547.149 319.16 545.854 318.961 544.548C318.807 543.527 318.657 542.499 318.506 541.471C318.306 540.093 318.106 538.714 317.914 537.32C317.869 537 317.828 536.676 317.785 536.356C364.339 605.64 422.778 657.312 461.589 657.312C542.632 657.312 640.626 642.348 716.397 617.086C739.631 609.338 757.885 595.706 771.709 577.555C773.15 586.734 773.228 596.067 771.935 605.226C771.895 605.501 771.855 605.775 771.814 606.05C771.597 607.491 771.336 608.925 771.051 610.357C770.963 610.789 770.884 611.22 770.79 611.65C770.511 612.95 770.189 614.24 769.854 615.527C769.727 616.013 769.616 616.5 769.479 616.984C769.075 618.438 768.621 619.881 768.142 621.317C768.059 621.563 767.994 621.812 767.91 622.056C757.121 653.429 737.887 676.169 707.827 686.19C643.849 707.519 517.452 725.026 461.584 725.026C434.022 725.026 406.548 715.585 382.518 692.776C381.484 691.795 380.46 690.79 379.446 689.765C379.297 689.614 379.151 689.456 379.002 689.305C378.151 688.429 377.303 687.55 376.466 686.65ZM177.034 725.019H123.176C124.337 654.54 121.351 570.896 110.867 490.584C104.289 440.185 95.2147 395.82 83.2675 358.68C92.8579 361.027 102.394 363.873 112.812 367.371C117.931 369.09 134.471 374.892 135.201 375.144C143.922 378.148 150.476 380.205 156.99 381.892C163.909 383.684 170.495 384.955 177.035 385.695L177.034 725.019ZM190.584 359.369C190.557 359.369 190.53 359.372 190.503 359.374C181.817 359.367 173.342 358.149 163.78 355.673C158.077 354.195 152.132 352.329 144.022 349.536C143.443 349.336 126.76 343.484 121.435 341.696C104.197 335.906 89.003 331.737 72.2964 328.625C66.799 315.347 60.8207 303.287 54.325 292.554C10.0502 219.381 22.8162 158.712 71.4045 108.418C81.2012 98.2765 91.7311 89.4558 102.245 82.0317C104.862 80.1828 107.22 78.5974 109.263 77.277C110.625 78.1498 112.15 79.1433 113.829 80.2558C123.061 86.3754 133.384 93.8122 144.527 102.584C176.466 127.728 208.441 158.464 238.287 194.947C270.792 234.681 298.776 278.899 320.878 327.713C394.767 490.897 518.634 559.306 634.317 502.184C673.991 482.595 735.876 502.504 760.338 544.845C748.8 567.301 731.781 583.4 707.83 591.386C634.908 615.697 539.8 630.222 461.589 630.222C422.892 630.222 340.637 541.966 298.409 445.398C298.24 444.962 298.082 444.518 297.909 444.083C277.132 391.857 242.224 359.369 190.584 359.369Z" fill="black"/>
</g>
</g>
</g>
</svg>
