<?xml version="1.0" encoding="iso-8859-1"?>
<!-- Uploaded to: SVG Repo, www.svgrepo.com, Generator: SVG Repo Mixer Tools -->
<svg fill="#000000" height="800px" width="800px" version="1.1" id="Layer_1" xmlns="http://www.w3.org/2000/svg" xmlns:xlink="http://www.w3.org/1999/xlink" 
	 viewBox="0 0 504.088 504.088" xml:space="preserve">
<g>
	<g>
		<path d="M501.592,392.191c0.173-0.662,0.357-1.323,0.512-1.988c0.205-0.879,0.378-1.764,0.551-2.648
			c0.063-0.326,0.138-0.65,0.197-0.976c0.199-1.094,0.365-2.191,0.516-3.29c0.014-0.105,0.033-0.21,0.047-0.316
			c2.098-15.829-0.826-32.158-8.546-46.46c-19.504-35.695-69.123-51.979-102.733-35.385
			c-62.945,31.081-131.409-6.73-174.399-101.673c-14.562-32.158-32.988-61.274-54.38-87.423
			c-19.634-23.999-40.671-44.223-61.731-60.802c-7.394-5.821-14.275-10.777-20.47-14.884c-3.768-2.498-6.505-4.177-8.042-5.052
			c-2.562-1.459-5.695-1.493-8.288-0.089c-2.159,1.17-5.729,3.354-10.244,6.542c-7.453,5.263-14.897,11.498-21.863,18.709
			c-35.6,36.851-45.384,83.346-13.089,136.719c4.243,7.011,8.139,15.138,11.702,24.277c0.033,0.095,0.052,0.19,0.089,0.285
			c9.565,24.656,16.655,56.437,21.507,93.597c6.592,50.485,8.398,103.359,7.579,147.464c-0.057,3.069-0.114,5.198-0.151,6.29
			c-0.164,4.824,3.702,8.823,8.528,8.823h51.2c2.063,0,3.954-0.732,5.429-1.95c1.898-1.565,3.108-3.935,3.108-6.587V244.191
			c19.743,3.267,33.769,18.142,43.236,41.939c0.111,0.28,0.212,0.566,0.322,0.847c0.003,0.008,0.005,0.016,0.008,0.024
			c3.803,9.776,6.519,20.281,8.309,30.761c0.627,3.673,1.093,7.072,1.419,10.106c0.022,0.202,0.042,0.394,0.061,0.582
			c0.151,1.463,0.234,2.496,0.266,3.033c1.11,9.766,2.519,18.967,4.2,27.632c15.76,81.236,55.793,114.796,104.408,114.796
			c36.92,0,118.363-11.28,160.557-25.347c24.592-8.197,40.216-26.668,48.601-51.051c0.418-1.218,0.801-2.444,1.154-3.677
			C501.32,393.29,501.448,392.739,501.592,392.191z M237.215,432.665c-0.167-0.18-0.331-0.366-0.498-0.548
			c-0.45-0.491-0.899-0.984-1.343-1.49c-0.198-0.226-0.392-0.458-0.589-0.687c-0.408-0.474-0.815-0.949-1.217-1.436
			c-0.209-0.253-0.415-0.513-0.622-0.769c-0.385-0.475-0.769-0.952-1.148-1.44c-0.213-0.274-0.424-0.554-0.635-0.832
			c-0.367-0.482-0.733-0.965-1.095-1.458c-0.215-0.293-0.429-0.592-0.642-0.889c-0.353-0.492-0.705-0.986-1.054-1.489
			c-0.214-0.308-0.425-0.62-0.636-0.932c-0.343-0.506-0.684-1.015-1.021-1.531c-0.21-0.322-0.419-0.647-0.628-0.972
			c-0.333-0.52-0.663-1.045-0.991-1.576c-0.206-0.334-0.411-0.67-0.616-1.009c-0.326-0.539-0.648-1.085-0.969-1.635
			c-0.199-0.342-0.398-0.685-0.595-1.031c-0.319-0.56-0.635-1.128-0.949-1.699c-0.193-0.35-0.385-0.701-0.576-1.055
			c-0.313-0.583-0.623-1.174-0.931-1.769c-0.184-0.355-0.369-0.71-0.551-1.069c-0.31-0.612-0.616-1.233-0.921-1.857
			c-0.174-0.355-0.348-0.708-0.52-1.067c-0.308-0.644-0.612-1.299-0.914-1.956c-0.163-0.353-0.327-0.703-0.487-1.059
			c-0.31-0.687-0.614-1.386-0.918-2.086c-0.146-0.338-0.295-0.671-0.44-1.012c-0.322-0.757-0.637-1.527-0.951-2.299
			c-0.121-0.297-0.244-0.588-0.364-0.887c-0.352-0.88-0.698-1.775-1.04-2.676c-0.077-0.202-0.156-0.399-0.233-0.603
			c-0.844-2.241-1.659-4.543-2.443-6.908c-0.037-0.111-0.072-0.226-0.109-0.337c-0.348-1.056-0.692-2.123-1.029-3.204
			c-0.108-0.347-0.212-0.704-0.319-1.054c-0.26-0.852-0.52-1.706-0.773-2.573c-0.132-0.452-0.259-0.913-0.388-1.368
			c-0.222-0.78-0.444-1.559-0.66-2.351c-0.14-0.515-0.276-1.04-0.414-1.56c-0.197-0.745-0.395-1.489-0.587-2.244
			c-0.145-0.569-0.285-1.146-0.427-1.72c-0.178-0.721-0.356-1.442-0.529-2.172c-0.145-0.612-0.286-1.231-0.428-1.849
			c-0.163-0.709-0.325-1.42-0.483-2.138c-0.143-0.648-0.282-1.304-0.422-1.959c-0.149-0.701-0.297-1.404-0.442-2.113
			c-0.14-0.686-0.278-1.378-0.414-2.073c-0.136-0.691-0.27-1.385-0.402-2.084c-0.137-0.726-0.272-1.456-0.404-2.191
			c-0.123-0.68-0.244-1.365-0.364-2.052c-0.133-0.767-0.265-1.538-0.394-2.314c-0.11-0.665-0.218-1.334-0.326-2.005
			c-0.13-0.814-0.258-1.63-0.383-2.453c-0.097-0.643-0.192-1.291-0.287-1.939c-0.126-0.868-0.252-1.737-0.373-2.615
			c-0.028-0.202-0.054-0.406-0.081-0.608c29.334,43.657,66.157,76.216,90.612,76.216c51.066,0,112.813-9.429,160.557-25.347
			c14.64-4.882,26.142-13.472,34.853-24.909c0.908,5.784,0.957,11.665,0.142,17.436c-0.025,0.173-0.05,0.346-0.076,0.519
			c-0.137,0.908-0.301,1.812-0.481,2.714c-0.055,0.272-0.105,0.544-0.164,0.815c-0.176,0.819-0.379,1.632-0.59,2.443
			c-0.08,0.306-0.15,0.613-0.236,0.918c-0.255,0.916-0.541,1.825-0.843,2.73c-0.052,0.155-0.093,0.312-0.146,0.466
			c-6.798,19.768-18.918,34.097-37.859,40.411c-40.313,13.44-119.957,24.471-155.16,24.471c-17.367,0-34.679-5.949-49.82-20.321
			c-0.652-0.618-1.297-1.251-1.936-1.897c-0.094-0.095-0.186-0.195-0.28-0.29C238.277,433.786,237.743,433.232,237.215,432.665z
			 M111.551,456.842H77.615c0.731-44.41-1.15-97.115-7.756-147.72c-4.145-31.757-9.863-59.712-17.391-83.114
			c6.043,1.479,12.052,3.272,18.616,5.476c3.226,1.083,13.648,4.739,14.108,4.898c5.495,1.893,9.625,3.189,13.729,4.252
			c4.36,1.129,8.51,1.93,12.631,2.396V456.842z M120.089,226.442c-0.017,0-0.034,0.002-0.051,0.003
			c-5.473-0.004-10.813-0.772-16.838-2.332c-3.594-0.931-7.34-2.107-12.45-3.867c-0.365-0.126-10.877-3.813-14.232-4.94
			c-10.862-3.648-20.436-6.275-30.963-8.236c-3.464-8.367-7.231-15.966-11.324-22.729C6.333,138.234,14.377,100.006,44.993,68.315
			c6.173-6.39,12.808-11.948,19.433-16.626c1.649-1.165,3.135-2.164,4.422-2.996c0.858,0.55,1.819,1.176,2.877,1.877
			c5.817,3.856,12.322,8.542,19.343,14.069c20.125,15.844,40.273,35.211,59.079,58.199c20.482,25.037,38.115,52.899,52.042,83.657
			c46.558,102.824,124.608,145.929,197.501,109.936c24.999-12.343,63.993,0.202,79.407,26.881
			c-7.27,14.15-17.994,24.294-33.086,29.326c-45.949,15.319-105.877,24.471-155.159,24.471c-24.383,0-76.213-55.611-102.821-116.459
			c-0.107-0.275-0.206-0.555-0.315-0.829C174.624,246.913,152.628,226.442,120.089,226.442z"/>
	</g>
</g>
</svg>